<?xml version="1.0" encoding="UTF-8"?>
<svg width="100" height="100" xmlns="http://www.w3.org/2000/svg">

    <style>
        #circleOnSquareW rect{
            fill: white;
        }
        #circleOnSquareW circle{
            fill: red;
        }
        #circleOnSquareR rect{
            fill: red;
        }
        #circleOnSquareR circle{
            fill: white;
        }
    </style>

    <defs>
        <g id="circleOnSquareW">
            <rect x="0" y="0" width="20" height="20"  />
            <circle cx="5" cy="5" r="5" />
            <circle cx="5" cy="15" r="5" />
            <circle cx="15" cy="5" r="5" />
            <circle cx="15" cy="15" r="5" />
        </g>
        <g id="circleOnSquareR">
            <rect x="0" y="0" width="20" height="20"  />
            <circle cx="5" cy="5" r="5" />
            <circle cx="5" cy="15" r="5" />
            <circle cx="15" cy="5" r="5" />
            <circle cx="15" cy="15" r="5" />
        </g>
        <g id="circlePatch">
            <use href="#circleOnSquareR" x="0" y="0" />
            <use href="#circleOnSquareW" x="20" y="0" />
            <use href="#circleOnSquareR" x="40" y="0" />
            <use href="#circleOnSquareW" x="60" y="0" />
            <use href="#circleOnSquareR" x="80" y="0" />
            <use href="#circleOnSquareW" x="0" y="20" />
            <use href="#circleOnSquareR" x="20" y="20" />
            <use href="#circleOnSquareW" x="40" y="20" />
            <use href="#circleOnSquareR" x="60" y="20" />
            <use href="#circleOnSquareW" x="80" y="20" />
            <use href="#circleOnSquareR" x="0" y="40" />
            <use href="#circleOnSquareW" x="20" y="40" />
            <use href="#circleOnSquareR" x="40" y="40" />
            <use href="#circleOnSquareW" x="60" y="40" />
            <use href="#circleOnSquareR" x="80" y="40" />
            <use href="#circleOnSquareW" x="0" y="60" />
            <use href="#circleOnSquareR" x="20" y="60" />
            <use href="#circleOnSquareW" x="40" y="60" />
            <use href="#circleOnSquareR" x="60" y="60" />
            <use href="#circleOnSquareW" x="80" y="60" />
            <use href="#circleOnSquareR" x="0" y="80" />
            <use href="#circleOnSquareW" x="20" y="80" />
            <use href="#circleOnSquareR" x="40" y="80" />
            <use href="#circleOnSquareW" x="60" y="80" />
            <use href="#circleOnSquareR" x="80" y="80" />

        </g>

      </defs>
      <use href="#circlePatch" x="0" y="0"/>

</svg>